<svg xmlns="http://www.w3.org/2000/svg" viewBox="0 0 621.67 184.79"><defs><style>.cls-1{fill:#e30613}</style></defs><title>Risorsa 2</title><g id="Livello_2" data-name="Livello 2"><path class="cls-1" d="M450.61 132.58c6.41.08 5.14 5 4.82 6.12l-5.93 19.85c-1 3.14-3.33 4.68-8 4.68h-84.38a57.89 57.89 0 0 0 33.42-39 .69.69 0 0 1 .23.49v.17c1.86 6.91 8.48 7.79 12.25 7.59zm-98.14-22.49a17.92 17.92 0 1 1-17.92-17.93 17.93 17.93 0 0 1 17.92 17.93M216.09 93.22l-20.44 76.66-28.47-76.57zm394.66 91.57l-34.13-91.68c-4.41-12-13.81-21.31-29-21.56H427.88a45.1 45.1 0 0 0-16.56 3.28c-8.32 4-11.67 7.53-15 17.65l-4.23 13.11a57.72 57.72 0 0 0-100.57-34.03H159l-15.56-41.43c-.88-1.79-1.76-3.42-2.65-4.95a44.73 44.73 0 0 0-80.54.16c-.79 1.41-1.56 2.91-2.34 4.56L0 184.77h60.75c8.68-29.65 17.12-60.64 25.78-91 2.15-7.64 6.07-25.41 13.38-25.29h.31c6.37 0 10.36 17 12.66 24.89 9 30.76 18.8 61.87 27.34 91.42h89.34c8.06-30.73 24.5-91.54 24.5-91.54l25.18.08a57 57 0 0 0-2.44 16.77 57.79 57.79 0 0 0 45 56.36v.05l5.25 18.27h123.1c14.9 0 21.95-9.23 25.25-18.45l7-22.73c1.33-4.42 7.09-19.94-12.89-19.92h-51.33c-4.95 0-3.5-3-2.56-6.82l6.8-19.58c.51-1.93 3.16-4 6.54-4l89.91-.08-34 91.54h37.85L539.17 128c1.4-4.9 4-15.8 8.42-15.8 4.45 0 6.79 10.35 8.35 15.7v.1c5.76 19.38 16.83 56.79 16.83 56.79zm.57-103.46a5 5 0 0 1-1.85.23v-2.93h.53a3.47 3.47 0 0 1 1.44.28A1.11 1.11 0 0 1 612 80a1.28 1.28 0 0 1-.73 1.3m2.19 1.76a3.79 3.79 0 0 0 1.86-1.34 3.38 3.38 0 0 0 .62-2 2.91 2.91 0 0 0-1.53-2.56 7 7 0 0 0-3.78-1h-5v12.28h3.82v-4.7h.36l2.2 4.69h4.16zm3.16 5.84a8.79 8.79 0 0 1-6.23 2.61 8.23 8.23 0 0 1-6.28-2.76 9 9 0 0 1-2.56-6.28 8.65 8.65 0 0 1 2.54-6.26 8.52 8.52 0 0 1 6.36-2.61 8.43 8.43 0 0 1 6.34 2.67 8.88 8.88 0 0 1 2.56 6.36 8.34 8.34 0 0 1-2.74 6.26m2-14.12a10.37 10.37 0 0 0-8-3.52 11.22 11.22 0 0 0-4.34 1 12 12 0 0 0-4.76 3.52 10.5 10.5 0 0 0-2.22 6.72 11.35 11.35 0 0 0 2.67 7.4 10.44 10.44 0 0 0 8.51 3.85 10.66 10.66 0 0 0 7.89-3.36 10.8 10.8 0 0 0 3.29-7.79 11.24 11.24 0 0 0-3-7.83" id="Livello_1-2" data-name="Livello 1"/></g></svg>